<svg xmlns="http://www.w3.org/2000/svg" viewBox="0 0 128.84 66.78"><defs><style>.cls-1{fill:#62b22f;}.cls-2{fill:#fff;}</style></defs><g id="Layer_2" data-name="Layer 2"><g id="Layer_1-2" data-name="Layer 1"><rect class="cls-1" x="-2.38" y="25.01" width="47.87" height="16.77" rx="6.14" transform="translate(54.95 11.83) rotate(90)"/><rect class="cls-1" x="22.39" y="25.01" width="47.87" height="16.77" rx="6.14" transform="translate(79.71 -12.93) rotate(90)"/><rect class="cls-1" x="47.15" y="25.01" width="47.87" height="16.77" rx="6.14" transform="translate(104.47 -37.69) rotate(90)"/><path class="cls-2" d="M0,57.46V9.31A9.33,9.33,0,0,1,9.31,0H107.4a9.33,9.33,0,0,1,9.31,9.31V57.46a9.33,9.33,0,0,1-9.31,9.32H9.31A9.33,9.33,0,0,1,0,57.46ZM114.21,9.31A6.82,6.82,0,0,0,107.4,2.5H9.31A6.82,6.82,0,0,0,2.5,9.31V57.46a6.83,6.83,0,0,0,6.81,6.82H107.4a6.83,6.83,0,0,0,6.81-6.82Z"/><path class="cls-2" d="M114.21,50.64V16.14h9.42a5.22,5.22,0,0,1,5.21,5.21V45.43a5.22,5.22,0,0,1-5.21,5.21Zm2.5-32v29.5h6.92a2.72,2.72,0,0,0,2.71-2.71V21.35a2.71,2.71,0,0,0-2.71-2.71Z"/></g></g></svg>